<svg id="Layer_1" data-name="Layer 1" xmlns="http://www.w3.org/2000/svg" viewBox="0 0 457.34 225.89"><defs><style>.cls-1{fill:#0071bc;}</style></defs><title>logoArtboard 1 copy 10</title><path class="cls-1" d="M3.83.19,106.57,222.34a5.71,5.71,0,0,0,5.14,3.36H222.06a4,4,0,0,0,3.83-4.06V4.5A4,4,0,0,0,222.06.44H152.67a4,4,0,0,0-3.83,4.06V140.11L86.6,4.1A5.76,5.76,0,0,0,81.23.19Z"/><path class="cls-1" d="M0,4.89V219.7a5.74,5.74,0,0,0,9.71,4.15L71.79,163.6Z"/><path class="cls-1" d="M231.82,222.06,454,119.32a5.73,5.73,0,0,0,3.37-5.14V3.83A4,4,0,0,0,453.28,0H236.13a4,4,0,0,0-4.06,3.83V73.22a4,4,0,0,0,4.06,3.83H371.74l-136,62.24a5.78,5.78,0,0,0-3.91,5.37Z"/><path class="cls-1" d="M236.52,225.89H451.33a5.74,5.74,0,0,0,4.15-9.71L395.23,154.1Z"/></svg>